<?xml version="1.0" encoding="UTF-8"?>
<svg id="Layer_1" data-name="Layer 1" xmlns="http://www.w3.org/2000/svg" xmlns:xlink="http://www.w3.org/1999/xlink" viewBox="0 0 123.63 142.92">
  <defs>
    <style>
      .cls-1 {
        fill: url(#linear-gradient-2);
        stroke: url(#linear-gradient-3);
        stroke-miterlimit: 10;
      }

      .cls-2 {
        fill: url(#linear-gradient);
      }
    </style>
    <linearGradient id="linear-gradient" x1="106.39" y1="74.98" x2="39.65" y2="146.48" gradientTransform="translate(0 222.44) scale(1 -1)" gradientUnits="userSpaceOnUse">
      <stop offset="0" stop-color="#030027"/>
      <stop offset="1" stop-color="#3066be"/>
    </linearGradient>
    <linearGradient id="linear-gradient-2" x1="61.81" y1="75.77" x2="61.81" y2="223.94" gradientTransform="translate(0 222.44) scale(1 -1)" gradientUnits="userSpaceOnUse">
      <stop offset=".1" stop-color="#030027"/>
      <stop offset=".99" stop-color="#3066be"/>
    </linearGradient>
    <linearGradient id="linear-gradient-3" x1="0" y1="71.46" x2="123.63" y2="71.46" gradientUnits="userSpaceOnUse">
      <stop offset=".1" stop-color="#030027"/>
      <stop offset="1" stop-color="#3066be"/>
    </linearGradient>
  </defs>
  <g id="K">
    <path class="cls-2" d="M58.39,138.64l-33.58-45.48,33.84-39.51,63.73,82.71c1.98,2.42.26,6.06-2.87,6.06h-53.17c-3.09,0-6.01-1.39-7.96-3.78h0Z"/>
    <path class="cls-1" d="M.51,138.7V4.38C.51,2.33,2.17.67,4.22.67h45.06v24.52L68.89.5h50.52c3.17,0,4.88,3.72,2.82,6.12L7.03,141.11c-2.24,2.62-6.53,1.03-6.53-2.41h.01Z"/>
  </g>
</svg>